<svg class="svg-icon" style="width: 1em; height: 1em;vertical-align: middle;fill: currentColor;overflow: hidden;" viewBox="0 0 1024 1024" version="1.1" xmlns="http://www.w3.org/2000/svg"><path d="M170.666667 170.666667h682.666666a85.333333 85.333333 0 0 1 85.333334 85.333333v512a85.333333 85.333333 0 0 1-85.333334 85.333333H170.666667a85.333333 85.333333 0 0 1-85.333334-85.333333V256a85.333333 85.333333 0 0 1 85.333334-85.333333m0 85.333333v512h298.666666V256H170.666667m682.666666 512V256h-52.906666c10.24 23.04 8.106667 45.653333 8.106666 48.213333-2.986667 28.586667-23.04 58.453333-30.293333 69.12l-99.413333 108.8 141.653333-0.853333 0.426667 52.053333-221.866667-1.28-1.706667-42.666666s130.133333-137.813333 136.533334-150.186667c5.973333-11.946667 30.293333-83.2-29.866667-83.2-52.48 2.133333-46.506667 55.466667-46.506667 55.466667l-65.706666 0.426666s0.426667-28.16 16.213333-55.893333H554.666667v512h110.08l-0.426667-36.693333 41.386667-0.426667s38.826667-6.826667 39.253333-44.8c1.706667-42.666667-34.56-42.666667-40.96-42.666667-5.546667 0-45.653333 2.133333-45.653333 37.12h-64.853334s1.706667-87.893333 110.506667-87.893333c110.933333 0 104.96 86.186667 104.96 86.186667s1.706667 53.333333-47.36 73.386666l22.186667 15.786667H853.333333M380.586667 682.666667h-64v-247.466667l-76.8 23.893333V406.613333l133.973333-47.786666h6.826667V682.666667z" fill="" /></svg>